# Blender 3.5.0
# www.blender.org
o allFour
v -1.000000 -1.000000 -0.008220
v -0.008220 -1.000000 -1.000000
v -0.951459 -1.000000 -0.314696
v -0.810587 -1.000000 -0.591173
v -0.591173 -1.000000 -0.810587
v -0.314696 -1.000000 -0.951459
v -0.008220 1.000000 -1.000000
v -1.000000 1.000000 -0.008220
v -0.314696 1.000000 -0.951459
v -0.591173 1.000000 -0.810587
v -0.810587 1.000000 -0.591173
v -0.951459 1.000000 -0.314696
v 1.000000 -1.000000 -0.008220
v 0.314696 -1.000000 -0.951459
v 0.591173 -1.000000 -0.810587
v 0.810587 -1.000000 -0.591173
v 0.951459 -1.000000 -0.314696
v 1.000000 1.000000 -0.008220
v 0.951459 1.000000 -0.314696
v 0.810587 1.000000 -0.591173
v 0.591173 1.000000 -0.810587
v 0.314696 1.000000 -0.951459
v -0.008220 -1.000000 1.000000
v -0.314696 -1.000000 0.951459
v -0.591173 -1.000000 0.810587
v -0.810587 -1.000000 0.591173
v -0.951459 -1.000000 0.314696
v -0.008220 1.000000 1.000000
v -0.951459 1.000000 0.314696
v -0.810587 1.000000 0.591173
v -0.591173 1.000000 0.810587
v -0.314696 1.000000 0.951459
v 0.951459 -1.000000 0.314696
v 0.810587 -1.000000 0.591173
v 0.591173 -1.000000 0.810587
v 0.314696 -1.000000 0.951459
v 0.314696 1.000000 0.951459
v 0.591173 1.000000 0.810587
v 0.810587 1.000000 0.591173
v 0.951459 1.000000 0.314696
vn -0.0000 1.0000 -0.0000
vn -1.0000 -0.0000 -0.0039
vn -0.9511 -0.0000 -0.3090
vn -0.8090 -0.0000 -0.5878
vn -0.5878 -0.0000 -0.8090
vn -0.3090 -0.0000 -0.9511
vn -0.0039 -0.0000 -1.0000
vn 1.0000 -0.0000 -0.0039
vn 0.9511 -0.0000 -0.3090
vn 0.8090 -0.0000 -0.5878
vn 0.5878 -0.0000 -0.8090
vn 0.3053 -0.0000 -0.9523
vn -0.0039 -0.0000 1.0000
vn 0.3053 -0.0000 0.9523
vn 0.5878 -0.0000 0.8090
vn 0.8090 -0.0000 0.5878
vn 0.9523 -0.0000 0.3053
vn -0.9523 -0.0000 0.3053
vn -0.8090 -0.0000 0.5878
vn -0.5878 -0.0000 0.8090
vn -0.3090 -0.0000 0.9511
vn -0.0000 -1.0000 -0.0000
vt 0.375000 0.876027
vt 0.375000 0.873973
vt 0.248973 0.750000
vt 0.375000 0.123973
vt 0.375000 0.126027
vt 0.125000 0.623973
vt 0.375000 0.914337
vt 0.210663 0.743932
vt 0.375000 1.000000
vt 0.375000 0.000000
vt 0.176103 0.726323
vt 0.375000 0.051103
vt 0.148677 0.698897
vt 0.375000 0.085663
vt 0.131068 0.664337
vt 0.875000 0.626027
vt 0.625000 0.123973
vt 0.625000 0.126027
vt 0.748973 0.750000
vt 0.625000 0.876027
vt 0.625000 0.873973
vt 0.868932 0.664337
vt 0.625000 0.085663
vt 0.851323 0.698897
vt 0.625000 0.051103
vt 0.823897 0.726323
vt 0.625000 1.000000
vt 0.625000 0.000000
vt 0.789337 0.743932
vt 0.625000 0.914337
vt 0.375000 0.373973
vt 0.375000 0.376027
vt 0.251027 0.500000
vt 0.375000 0.164337
vt 0.131068 0.585663
vt 0.375000 0.198897
vt 0.148677 0.551103
vt 0.375000 0.301103
vt 0.176103 0.523677
vt 0.375000 0.335663
vt 0.210663 0.506068
vt 0.751027 0.500000
vt 0.625000 0.373973
vt 0.625000 0.376027
vt 0.789337 0.506068
vt 0.625000 0.335663
vt 0.823897 0.523677
vt 0.625000 0.301103
vt 0.851323 0.551103
vt 0.625000 0.198897
vt 0.868932 0.585663
vt 0.625000 0.164337
vt 0.375000 0.623973
vt 0.375000 0.626027
vt 0.375000 0.664337
vt 0.368932 0.664337
vt 0.375000 0.698897
vt 0.351323 0.698897
vt 0.375000 0.801103
vt 0.323897 0.726323
vt 0.375000 0.835663
vt 0.289337 0.743932
vt 0.625000 0.623973
vt 0.625000 0.626027
vt 0.710663 0.743932
vt 0.625000 0.835663
vt 0.676103 0.726323
vt 0.625000 0.801103
vt 0.648677 0.698897
vt 0.625000 0.698897
vt 0.631068 0.664337
vt 0.625000 0.664337
vt 0.375000 0.414337
vt 0.289337 0.506068
vt 0.375000 0.448897
vt 0.323897 0.523677
vt 0.375000 0.551103
vt 0.351323 0.551103
vt 0.375000 0.585663
vt 0.368932 0.585663
vt 0.631068 0.585663
vt 0.625000 0.585663
vt 0.648677 0.551103
vt 0.625000 0.551103
vt 0.676103 0.523677
vt 0.625000 0.448897
vt 0.710663 0.506068
vt 0.625000 0.414337
s 1
f 28/63/1 37/81/1 38/83/1 39/85/1 40/87/1 18/42/1 19/45/1 20/47/1 21/49/1 22/51/1 7/16/1 9/22/1 10/24/1 11/26/1 12/29/1 8/19/1 29/65/1 30/67/1 31/69/1 32/71/1
f 1/1/2 8/20/2 12/30/3 3/7/3
f 3/7/3 12/30/3 11/27/4 4/9/4
f 4/10/4 11/28/4 10/25/5 5/12/5
f 5/12/5 10/25/5 9/23/6 6/14/6
f 6/14/6 9/23/6 7/17/7 2/4/7
f 18/43/8 13/31/8 17/40/9 19/46/9
f 19/46/9 17/40/9 16/38/10 20/48/10
f 20/48/10 16/38/10 15/36/11 21/50/11
f 21/50/11 15/36/11 14/34/12 22/52/12
f 22/52/12 14/34/12 2/5/7 7/18/7
f 28/63/13 23/53/13 36/79/14 37/82/14
f 37/82/14 36/79/14 35/77/15 38/84/15
f 38/84/15 35/77/15 34/75/16 39/86/16
f 39/86/16 34/75/16 33/73/17 40/88/17
f 40/88/17 33/73/17 13/32/8 18/44/8
f 8/21/2 1/2/2 27/61/18 29/66/18
f 29/66/18 27/61/18 26/59/19 30/68/19
f 30/68/19 26/59/19 25/57/20 31/70/20
f 31/70/20 25/57/20 24/55/21 32/72/21
f 32/72/21 24/55/21 23/54/13 28/64/13
f 2/6/22 14/35/22 15/37/22 16/39/22 17/41/22 13/33/22 33/74/22 34/76/22 35/78/22 36/80/22 23/54/22 24/56/22 25/58/22 26/60/22 27/62/22 1/3/22 3/8/22 4/11/22 5/13/22 6/15/22
