# Blender 3.5.0
# www.blender.org
o top
v 1.000000 1.000000 1.000000
v 1.000000 -1.000000 1.000000
v -1.000000 1.000000 1.000000
v -1.000000 -1.000000 1.000000
v -1.000000 1.000000 0.031211
v -0.287451 1.000000 -0.949529
v -0.574920 1.000000 -0.803056
v -0.803056 1.000000 -0.574920
v -0.949529 1.000000 -0.287451
v -1.000000 -1.000000 0.031211
v -0.949529 -1.000000 -0.287451
v -0.803056 -1.000000 -0.574920
v -0.574920 -1.000000 -0.803056
v -0.287451 -1.000000 -0.949529
v 1.000000 1.000000 0.004852
v 0.031211 1.000000 -1.000000
v 0.952584 1.000000 -0.305665
v 0.814978 1.000000 -0.585785
v 0.600651 1.000000 -0.808090
v 0.330583 1.000000 -0.950819
v 0.031211 -1.000000 -1.000000
v 1.000000 -1.000000 0.004852
v 0.330583 -1.000000 -0.950819
v 0.600651 -1.000000 -0.808090
v 0.814978 -1.000000 -0.585785
v 0.952584 -1.000000 -0.305665
vn -0.0000 -1.0000 -0.0000
vn -1.0000 -0.0000 -0.0000
vn -0.9969 -0.0000 -0.0785
vn -0.0000 -0.0000 1.0000
vn -0.0000 1.0000 -0.0000
vn -0.9511 -0.0000 -0.3090
vn -0.8090 -0.0000 -0.5878
vn -0.5878 -0.0000 -0.8090
vn -0.3090 -0.0000 -0.9511
vn 0.0029 -0.0000 -1.0000
vn 0.9971 -0.0000 -0.0757
vn 1.0000 -0.0000 -0.0000
vn 0.9541 -0.0000 -0.2994
vn 0.8186 -0.0000 -0.5744
vn 0.6011 -0.0000 -0.7991
vn 0.3188 -0.0000 -0.9478
vt 0.625000 0.500000
vt 0.375000 0.500000
vt 0.625000 0.750000
vt 0.375000 0.750000
vt 0.746099 0.750000
vt 0.625000 0.871099
vt 0.868691 0.660931
vt 0.625000 0.089069
vt 0.850382 0.696865
vt 0.625000 0.053135
vt 0.821865 0.725382
vt 0.625000 1.000000
vt 0.625000 0.000000
vt 0.785931 0.743691
vt 0.625000 0.910931
vt 0.253901 0.750000
vt 0.375000 0.871099
vt 0.214069 0.743691
vt 0.375000 0.910931
vt 0.178135 0.725382
vt 0.375000 1.000000
vt 0.375000 0.000000
vt 0.149618 0.696865
vt 0.375000 0.053135
vt 0.131309 0.660931
vt 0.375000 0.089069
vt 0.749394 0.500000
vt 0.625000 0.375606
vt 0.875000 0.621099
vt 0.625000 0.128901
vt 0.788208 0.505927
vt 0.625000 0.336792
vt 0.823223 0.523128
vt 0.625000 0.301777
vt 0.851011 0.549919
vt 0.625000 0.200081
vt 0.868852 0.583677
vt 0.625000 0.166323
vt 0.125000 0.621099
vt 0.375000 0.128901
vt 0.250606 0.500000
vt 0.375000 0.375606
vt 0.131148 0.583677
vt 0.375000 0.166323
vt 0.148989 0.549919
vt 0.375000 0.200081
vt 0.176777 0.523128
vt 0.375000 0.301777
vt 0.211792 0.505927
vt 0.375000 0.336792
s 1
f 21/39/1 23/43/1 24/45/1 25/47/1 26/49/1 22/41/1 2/2/1 4/4/1 10/16/1 11/18/1 12/20/1 13/23/1 14/25/1
f 4/4/2 3/3/2 5/6/3 10/17/3
f 2/2/4 1/1/4 3/3/4 4/4/4
f 1/1/5 15/27/5 17/31/5 18/33/5 19/35/5 20/37/5 16/29/5 6/7/5 7/9/5 8/11/5 9/14/5 5/5/5 3/3/5
f 10/17/3 5/6/3 9/15/6 11/19/6
f 11/19/6 9/15/6 8/12/7 12/21/7
f 12/22/7 8/13/7 7/10/8 13/24/8
f 13/24/8 7/10/8 6/8/9 14/26/9
f 14/26/9 6/8/9 16/30/10 21/40/10
f 22/42/11 15/28/11 1/1/12 2/2/12
f 15/28/11 22/42/11 26/50/13 17/32/13
f 17/32/13 26/50/13 25/48/14 18/34/14
f 18/34/14 25/48/14 24/46/15 19/36/15
f 19/36/15 24/46/15 23/44/16 20/38/16
f 20/38/16 23/44/16 21/40/10 16/30/10
