# Blender 3.5.0
# www.blender.org
o topLeft
v 1.000000 1.000000 1.000000
v 1.000000 -1.000000 1.000000
v -1.000000 1.000000 1.000000
v -1.000000 -1.000000 1.000000
v 1.000000 1.000000 -1.000000
v 1.000000 -1.000000 -1.000000
v 0.031211 1.000000 -1.000000
v -1.000000 1.000000 0.031211
v -0.287451 1.000000 -0.949529
v -0.574920 1.000000 -0.803056
v -0.803056 1.000000 -0.574920
v -0.949529 1.000000 -0.287451
v -1.000000 -1.000000 0.031211
v 0.031211 -1.000000 -1.000000
v -0.949529 -1.000000 -0.287451
v -0.803056 -1.000000 -0.574920
v -0.574920 -1.000000 -0.803056
v -0.287451 -1.000000 -0.949529
vn -0.0000 -1.0000 -0.0000
vn -0.0000 1.0000 -0.0000
vn -1.0000 -0.0000 -0.0000
vn -0.9969 -0.0000 -0.0785
vn -0.0000 -0.0000 1.0000
vn 1.0000 -0.0000 -0.0000
vn -0.9511 -0.0000 -0.3090
vn -0.8090 -0.0000 -0.5878
vn -0.5878 -0.0000 -0.8090
vn -0.3090 -0.0000 -0.9511
vn -0.0785 -0.0000 -0.9969
vn -0.0000 -0.0000 -1.0000
vt 0.625000 0.500000
vt 0.375000 0.500000
vt 0.625000 0.750000
vt 0.375000 0.750000
vt 0.875000 0.500000
vt 0.625000 0.250000
vt 0.125000 0.500000
vt 0.375000 0.250000
vt 0.875000 0.621099
vt 0.625000 0.128901
vt 0.746099 0.750000
vt 0.625000 0.871099
vt 0.868691 0.660931
vt 0.625000 0.089069
vt 0.850382 0.696865
vt 0.625000 0.053135
vt 0.821865 0.725382
vt 0.625000 1.000000
vt 0.625000 0.000000
vt 0.785931 0.743691
vt 0.625000 0.910931
vt 0.253901 0.750000
vt 0.375000 0.871099
vt 0.125000 0.621099
vt 0.375000 0.128901
vt 0.214069 0.743691
vt 0.375000 0.910931
vt 0.178135 0.725382
vt 0.375000 1.000000
vt 0.375000 0.000000
vt 0.149618 0.696865
vt 0.375000 0.053135
vt 0.131309 0.660931
vt 0.375000 0.089069
s 1
f 6/7/1 2/2/1 4/4/1 13/22/1 15/26/1 16/28/1 17/31/1 18/33/1 14/24/1
f 1/1/2 5/5/2 7/9/2 9/13/2 10/15/2 11/17/2 12/20/2 8/11/2 3/3/2
f 4/4/3 3/3/3 8/12/4 13/23/4
f 2/2/5 1/1/5 3/3/5 4/4/5
f 6/8/6 5/6/6 1/1/6 2/2/6
f 13/23/4 8/12/4 12/21/7 15/27/7
f 15/27/7 12/21/7 11/18/8 16/29/8
f 16/30/8 11/19/8 10/16/9 17/32/9
f 17/32/9 10/16/9 9/14/10 18/34/10
f 18/34/10 9/14/10 7/10/11 14/25/11
f 14/25/11 7/10/11 5/6/12 6/8/12
