<?xml version="1.0" encoding="UTF-8" standalone="no"?>
<!-- Created with Inkscape (http://www.inkscape.org/) -->

<svg
   width="154.88223mm"
   height="65.993057mm"
   viewBox="0 0 154.88223 65.993057"
   version="1.1"
   id="svg1"
   xmlns="http://www.w3.org/2000/svg"
   xmlns:svg="http://www.w3.org/2000/svg">
  <defs
     id="defs1" />
  <g
     id="layer1"
     style="display:inline"
     transform="translate(-19.53092,-65.890747)">
    <ellipse
       style="display:inline;fill:#a55f2a;fill-opacity:1;stroke:#3c2210;stroke-width:4.00071;stroke-linecap:round;stroke-linejoin:round;stroke-dashoffset:15118.1;stroke-opacity:1"
       id="path5-6-5"
       cx="164.65154"
       cy="50.692223"
       rx="5.4659963"
       ry="7.9135942"
       transform="matrix(0.87830846,0.47809439,-0.50128828,0.86528034,0,0)" />
    <ellipse
       style="display:inline;fill:#a55f2a;fill-opacity:1;stroke:#3c2210;stroke-width:4.00071;stroke-linecap:round;stroke-linejoin:round;stroke-dashoffset:15118.1;stroke-opacity:1"
       id="path5-6-4"
       cx="35.886398"
       cy="154.71704"
       rx="5.4659963"
       ry="7.9135942"
       transform="matrix(0.88081099,-0.47346806,0.44987088,0.89309361,0,0)" />
    <ellipse
       style="display:inline;fill:#a55f2a;fill-opacity:1;stroke:#3c2210;stroke-width:4.00071;stroke-linecap:round;stroke-linejoin:round;stroke-dashoffset:15118.1;stroke-opacity:1"
       id="path5-6"
       cx="172.28433"
       cy="-1.2725812"
       rx="5.4659963"
       ry="7.9135942"
       transform="matrix(0.87367451,0.48651089,-0.50957855,0.86042414,0,0)" />
    <path
       id="path1"
       style="display:inline;fill:#d79563;fill-opacity:1;stroke:#000000;stroke-width:4;stroke-linecap:round;stroke-linejoin:round;stroke-dashoffset:15118.1;stroke-opacity:0"
       d="m 77.13783,99.497641 -0.571542,9.672269 c -6.081285,5.14539 -17.424533,0.33161 -28.459442,-0.58027 -11.881934,-0.98187 -20.268914,0.8314 -20.519997,6.999 9.6e-5,3.31921 0.980284,4.26535 5.172294,4.9196 14.11896,-0.098 32.831675,-0.0838 51.869702,-0.045 -0.912501,3.20383 -0.113239,6.17619 2.00918,7.4719 2.830829,1.71942 7.051779,-0.0577 9.427848,-3.96927 0.665119,-1.09462 1.137576,-2.28593 1.380278,-3.48041 8.588489,0.0221 15.643129,0.0316 23.662639,0.0517 0.17887,1.17895 0.57674,2.36568 1.16375,3.47111 2.16041,4.0345 6.27854,6.03781 9.19841,4.47466 2.33425,-1.25077 3.25885,-4.46924 2.27479,-7.91838 4.71328,0.008 10.96206,0.0326 15.04301,0.0326 5.63658,-1.1e-4 13.95441,1.23935 18.56063,-1.85518 4.28454,-2.87843 5.06376,-9.91826 5.06377,-14.58361 -1e-5,-3.99646 -4.08955,-6.831628 -10.16841,-9.690844 -5.01434,-2.358522 -8.53822,-8.928594 -13.45599,-8.928686 -0.35264,8.33e-4 -0.69902,0.0378 -1.04903,0.05529 0.024,-1.58169 -0.38803,-3.282889 -1.17202,-4.839497 -1.96614,-3.90342 -5.71564,-5.909127 -8.37468,-4.47983 -2.65923,1.429116 -3.22099,5.752248 -1.25471,9.655741 l -1.99574,0.128158 C 133.3368,65.806196 77.476083,62.074657 77.13783,99.497641 Z" />
    <path
       style="display:inline;fill:#a55f2a;fill-opacity:1;stroke:#000000;stroke-width:4;stroke-linecap:round;stroke-linejoin:round;stroke-dashoffset:15118.1;stroke-opacity:0"
       d="m 77.772361,109.08619 1.834574,10.86356 -17.095012,7.57374 -35.496835,-0.0229 -5.375814,-11.00258 8.041358,-11.55386 18.17937,-4.14374 18.61949,1.92375 z"
       id="path8" />
    <path
       style="display:inline;fill:#a55f2a;fill-opacity:1;stroke:#000000;stroke-width:4;stroke-linecap:round;stroke-linejoin:round;stroke-dashoffset:15118.1;stroke-opacity:0"
       d="m 165.03877,96.002945 6.25637,5.609165 -1.94163,16.18027 -13.37569,3.66752 z"
       id="path7" />
    <path
       style="display:inline;fill:#361f0e;fill-opacity:1;stroke:#6e3f1c;stroke-width:4;stroke-linecap:round;stroke-linejoin:round;stroke-dashoffset:15118.1;stroke-opacity:1"
       d="m 172.15809,108.94716 -6.90358,-3.02032"
       id="path9" />
    <ellipse
       style="display:inline;fill:#cd5d5d;fill-opacity:0.679012;stroke:#6e3f1c;stroke-width:4;stroke-linecap:round;stroke-linejoin:round;stroke-dashoffset:15118.1;stroke-opacity:0"
       id="path10"
       cx="143.14149"
       cy="107.54486"
       rx="7.0114512"
       ry="6.7957139" />
    <path
       id="path1-2"
       style="display:inline;fill:#ffffff;fill-opacity:0;stroke:#3c2210;stroke-width:4;stroke-linecap:round;stroke-linejoin:round;stroke-dashoffset:15118.1;stroke-opacity:1"
       d="m 77.13783,99.497639 -0.571542,9.672271 c -8.183204,-9.314142 -19.50768,-8.91349 -28.363146,-8.49681 -33.498206,1.57619 -30.565229,27.16084 -17.601368,26.95446 0,0 21.832203,2.17593 31.21632,-0.0951 7.997682,-1.93547 13.581201,-9.70539 22.810751,-7.06925 -0.912501,3.20383 -0.113239,6.17619 2.00918,7.4719 2.830829,1.71942 7.051779,-0.0577 9.427848,-3.96927 0.665119,-1.09462 1.137576,-2.28593 1.380278,-3.48041 8.588489,0.0221 15.643129,0.0316 23.662639,0.0517 0.17887,1.17895 0.57674,2.36568 1.16375,3.47111 2.16041,4.0345 6.27854,6.03781 9.19841,4.47466 2.33425,-1.25077 3.25885,-4.46924 2.27479,-7.91838 4.71328,0.008 10.96206,0.0326 15.04301,0.0326 5.63658,-1.1e-4 13.95441,1.23935 18.56063,-1.85518 4.28454,-2.87843 5.06376,-9.91826 5.06377,-14.58361 -1e-5,-3.99646 -4.08955,-6.831631 -10.16841,-9.690841 -5.01434,-2.35852 -8.53822,-8.9286 -13.45599,-8.92869 -0.35264,8.3e-4 -0.69902,0.0378 -1.04903,0.0553 0.024,-1.581688 -0.38803,-3.282887 -1.17202,-4.839495 -1.96614,-3.90342 -5.71564,-5.909127 -8.37468,-4.47983 -2.65923,1.429116 -3.22099,5.752248 -1.25471,9.655745 l -1.99574,0.12815 C 133.3368,65.806197 77.476083,62.074658 77.13783,99.497639 Z" />
    <path
       style="fill:#000000;fill-opacity:0;stroke:#3c2210;stroke-width:4;stroke-linecap:round;stroke-linejoin:round;stroke-dashoffset:15118.1;stroke-opacity:1"
       d="m 147.24168,103.13779 h 7.6328"
       id="path4" />
    <path
       style="fill:#cd5d5d;fill-opacity:0;stroke:#3c2210;stroke-width:2;stroke-linecap:round;stroke-linejoin:round;stroke-dasharray:none;stroke-dashoffset:15118.1;stroke-opacity:1"
       d="m 119.03104,72.65036 1.38559,-5.759613"
       id="path11" />
    <path
       style="display:inline;fill:#cd5d5d;fill-opacity:0;stroke:#3c2210;stroke-width:2;stroke-linecap:round;stroke-linejoin:round;stroke-dasharray:none;stroke-dashoffset:15118.1;stroke-opacity:1"
       d="m 121.86129,72.684062 3.35079,-4.885201"
       id="path11-9" />
    <path
       style="display:inline;fill:#cd5d5d;fill-opacity:0;stroke:#c17843;stroke-width:2;stroke-linecap:round;stroke-linejoin:round;stroke-dasharray:none;stroke-dashoffset:15118.1;stroke-opacity:1"
       d="m 111.18029,112.78656 4.74855,-3.5418"
       id="path11-4" />
    <path
       style="display:inline;fill:#cd5d5d;fill-opacity:0;stroke:#c17843;stroke-width:2;stroke-linecap:round;stroke-linejoin:round;stroke-dasharray:none;stroke-dashoffset:15118.1;stroke-opacity:1"
       d="m 115.90776,114.79212 3.35079,-4.8852"
       id="path11-9-3" />
    <path
       style="display:inline;fill:#cd5d5d;fill-opacity:0;stroke:#c17843;stroke-width:2;stroke-linecap:round;stroke-linejoin:round;stroke-dasharray:none;stroke-dashoffset:15118.1;stroke-opacity:1"
       d="m 89.243071,92.034682 5.646554,1.791477"
       id="path11-5" />
    <path
       style="display:inline;fill:#cd5d5d;fill-opacity:0;stroke:#c17843;stroke-width:2;stroke-linecap:round;stroke-linejoin:round;stroke-dasharray:none;stroke-dashoffset:15118.1;stroke-opacity:1"
       d="m 90.130686,97.605431 5.887864,0.652755"
       id="path11-9-4" />
    <path
       style="display:inline;fill:#cd5d5d;fill-opacity:0;stroke:#3c2210;stroke-width:2;stroke-linecap:round;stroke-linejoin:round;stroke-dasharray:none;stroke-dashoffset:15118.1;stroke-opacity:1"
       d="m 162.26961,94.21879 -1.07869,-5.824899"
       id="path11-2" />
    <path
       style="display:inline;fill:#cd5d5d;fill-opacity:0;stroke:#3c2210;stroke-width:2;stroke-linecap:round;stroke-linejoin:round;stroke-dasharray:none;stroke-dashoffset:15118.1;stroke-opacity:1"
       d="m 163.68982,96.033683 1.50855,-5.728639"
       id="path11-9-7" />
    <path
       style="display:inline;fill:#cd5d5d;fill-opacity:0;stroke:#3c2210;stroke-width:2;stroke-linecap:round;stroke-linejoin:round;stroke-dasharray:none;stroke-dashoffset:15118.1;stroke-opacity:1"
       d="m 81.423057,84.619258 -5.617,-1.882107"
       id="path11-98" />
    <path
       style="display:inline;fill:#cd5d5d;fill-opacity:0;stroke:#3c2210;stroke-width:2;stroke-linecap:round;stroke-linejoin:round;stroke-dasharray:none;stroke-dashoffset:15118.1;stroke-opacity:1"
       d="m 81.629628,85.242574 -5.544094,2.087115"
       id="path11-9-6" />
    <path
       style="display:inline;fill:#000000;stroke:#6e3f1c;stroke-width:2;stroke-linecap:round;stroke-linejoin:round;stroke-dasharray:none;stroke-dashoffset:15118.1;stroke-opacity:1"
       d="m 63.42865,110.00833 6.084427,8.56327"
       id="path2-7" />
    <path
       style="display:inline;fill:#000000;stroke:#6e3f1c;stroke-width:2;stroke-linecap:round;stroke-linejoin:round;stroke-dasharray:none;stroke-dashoffset:15118.1;stroke-opacity:1"
       d="m 70.834907,111.3537 -8.722159,5.85439"
       id="path2-7-7" />
    <path
       style="display:inline;fill:#000000;stroke:#6e3f1c;stroke-width:2;stroke-linecap:round;stroke-linejoin:round;stroke-dasharray:none;stroke-dashoffset:15118.1;stroke-opacity:1"
       d="m 47.081748,110.12603 6.084427,8.56327"
       id="path2-7-1" />
    <path
       style="display:inline;fill:#000000;stroke:#6e3f1c;stroke-width:2;stroke-linecap:round;stroke-linejoin:round;stroke-dasharray:none;stroke-dashoffset:15118.1;stroke-opacity:1"
       d="m 54.488005,111.4714 -8.722159,5.85439"
       id="path2-7-7-5" />
    <path
       style="display:inline;fill:#000000;stroke:#6e3f1c;stroke-width:2;stroke-linecap:round;stroke-linejoin:round;stroke-dasharray:none;stroke-dashoffset:15118.1;stroke-opacity:1"
       d="m 30.872765,112.07571 6.084427,8.56327"
       id="path2-7-2" />
    <path
       style="display:inline;fill:#000000;stroke:#6e3f1c;stroke-width:2;stroke-linecap:round;stroke-linejoin:round;stroke-dasharray:none;stroke-dashoffset:15118.1;stroke-opacity:1"
       d="m 38.279022,113.42108 -8.722159,5.85439"
       id="path2-7-7-9" />
  </g>
  <g
     id="layer2"
     style="display:none"
     transform="translate(-19.53092,-65.890747)">
    <path
       id="path1-7"
       style="fill:#ffffff;fill-opacity:1;stroke:#000000;stroke-width:4;stroke-linecap:round;stroke-linejoin:round;stroke-dashoffset:15118.1"
       d="m 77.137832,99.497641 -0.571542,9.672269 c -4.355389,2.12507 -16.345848,-3.33592 -27.380757,-4.2478 -11.881934,-0.98187 -21.347599,4.49893 -21.598682,10.66653 9.6e-5,3.31921 0.980284,4.26535 5.172294,4.9196 14.11896,-0.098 24.633671,-0.0838 43.671699,-0.045 l 19.720893,10.59331 c 24.984493,1.96373 8.955273,-11.18672 24.957053,-10.51941 0,0 4.72836,-0.39227 7.03906,0.0153 10.35703,1.82665 -0.516,12.80516 10.77558,12.30915 8.03927,-0.35315 0.60668,-12.26441 9.86532,-12.26441 5.63658,-1.1e-4 13.95441,1.23935 18.56063,-1.85518 4.28454,-2.87843 5.06376,-9.91826 5.06377,-14.58361 -1e-5,-3.99646 -4.08955,-6.831628 -10.16841,-9.690844 -5.01434,-2.358522 -8.53822,-8.928594 -13.45599,-8.928686 -0.35264,8.33e-4 -0.69902,0.0378 -1.04903,0.05529 0.024,-1.58169 -0.38803,-3.282889 -1.17202,-4.839497 -1.96614,-3.90342 -5.71564,-5.909127 -8.37468,-4.47983 -2.65923,1.429116 -3.22099,5.752248 -1.25471,9.655741 l -1.99574,0.128158 C 133.3368,65.806196 77.476085,62.074657 77.137832,99.497641 Z" />
    <path
       style="display:inline;fill:#000000;fill-opacity:0;stroke:#000000;stroke-width:4;stroke-linecap:round;stroke-linejoin:round;stroke-dashoffset:15118.1"
       d="m 100.14576,96.850953 c 0,0 24.42496,-5.233918 14.61136,22.462237"
       id="path5-5" />
    <rect
       style="fill:#ffffff;fill-opacity:1;stroke:#000000;stroke-width:4;stroke-linecap:round;stroke-linejoin:round;stroke-dashoffset:15118.1"
       id="rect6"
       width="14.238639"
       height="7.5507932"
       x="104.20094"
       y="127.06906" />
  </g>
</svg>
